<?xml version="1.0" encoding="utf-8"?>
<!-- Generator: Adobe Illustrator 28.3.0, SVG Export Plug-In . SVG Version: 6.00 Build 0)  -->
<svg version="1.1" id="Layer_1" xmlns="http://www.w3.org/2000/svg" xmlns:xlink="http://www.w3.org/1999/xlink" x="0px" y="0px"
	 viewBox="0 0 1920 1080" style="enable-background:new 0 0 1920 1080;" xml:space="preserve">
<style type="text/css">
	.st0{fill:#595A5C;}
	.st1{font-family:'GeoramaExpanded-Medium';}
	.st2{font-size:39.6463px;}
	.st3{fill:#1C2123;}
	.st4{fill:#2F4696;}
	.st5{fill:#FFFFFF;}
</style>
<g>
	<g>
		<text transform="matrix(1 0 0 1 1017.5668 631.0789)" class="st0 st1 st2">Consulting</text>
		<g>
			<g>
				<path class="st3" d="M855.19,488.49h37.45c0.57,0,1.03-0.46,1.03-1.03v-12.6c0-0.57-0.46-1.03-1.03-1.03h-37.54
					c-0.57,0-1.03-0.46-1.03-1.03v-14.35c0-0.57,0.46-1.03,1.03-1.03h43.17c0.57,0,1.03-0.46,1.03-1.03v-13.18
					c0-0.57-0.46-1.03-1.03-1.03h-62.58c-0.57,0-1.03,0.46-1.03,1.03v65.88c0,0.57,0.46,1.03,1.03,1.03h17.45
					c0.57,0,1.03-0.46,1.03-1.03v-19.59C854.16,488.95,854.62,488.49,855.19,488.49z"/>
				<path class="st3" d="M905.94,510.14h16.39c0.57,0,1.03-0.46,1.03-1.03v-50.74c0-0.57-0.46-1.03-1.03-1.03h-16.39
					c-0.57,0-1.03,0.46-1.03,1.03v50.74C904.92,509.68,905.38,510.14,905.94,510.14z"/>
				<path class="st3" d="M905.74,449.77c1.71,1.3,4.51,1.94,8.39,1.94c4.01,0,6.86-0.65,8.54-1.94c1.68-1.29,2.52-3.3,2.52-6.02
					c0-2.72-0.84-4.72-2.52-6.02c-1.68-1.29-4.53-1.94-8.54-1.94c-3.88,0-6.68,0.65-8.39,1.94c-1.71,1.3-2.57,3.3-2.57,6.02
					C903.17,446.47,904.03,448.48,905.74,449.77z"/>
				<path class="st3" d="M969.36,456.37c-2.33,0-4.51,0.29-6.55,0.87c-2.04,0.58-4.08,1.5-6.11,2.77c-1.59,0.98-3.35,2.24-5.27,3.75
					c-0.67,0.53-1.67,0.06-1.67-0.8v-4.6c0-0.57-0.46-1.03-1.03-1.03h-14.54c-0.57,0-1.03,0.46-1.03,1.03v50.74
					c0,0.57,0.46,1.03,1.03,1.03h16.39c0.57,0,1.03-0.46,1.03-1.03v-32.07c0.17-0.31,0.32-0.57,0.49-0.89
					c2.66-1.65,5.13-2.8,7.42-3.47c2.43-0.71,4.74-1.07,6.94-1.07c1.49,0,2.99,0.1,4.51,0.29c1.19,0.15,2.41,0.36,3.66,0.63
					c0.57,0.12,1.13-0.24,1.24-0.81l2.36-13.14c0.1-0.53-0.24-1.06-0.77-1.18c-1.18-0.28-2.37-0.51-3.57-0.69
					C972.35,456.49,970.84,456.37,969.36,456.37z"/>
				<path class="st3" d="M1012.2,498.29c-1.72,0.71-4.22,1.07-7.52,1.07c-1.81,0-3.8-0.1-5.97-0.29c-2.17-0.19-4.37-0.45-6.6-0.78
					c-2.23-0.32-4.35-0.69-6.36-1.12c-1.54-0.32-2.93-0.64-4.17-0.94c-0.5,0.33-0.75,0.5-1.25,0.83l-1.61,9.9
					c-0.09,0.53,0.24,1.03,0.76,1.16c2.19,0.55,4.49,1.04,6.9,1.47c2.75,0.48,5.58,0.86,8.49,1.12c2.91,0.26,5.82,0.39,8.73,0.39
					c2.98,0,5.85-0.16,8.64-0.48c2.78-0.32,5.4-0.87,7.86-1.65c2.46-0.78,4.61-1.83,6.45-3.15c1.84-1.33,3.28-2.99,4.32-5
					c1.03-2,1.55-4.43,1.55-7.28c0-2.72-0.52-5.01-1.55-6.89c-1.04-1.88-2.47-3.41-4.32-4.61c-1.84-1.2-4.03-2.15-6.55-2.86
					c-2.52-0.71-5.27-1.29-8.25-1.75c-2.33-0.32-4.4-0.6-6.21-0.82c-1.81-0.23-3.35-0.48-4.61-0.78c-1.26-0.29-2.2-0.69-2.81-1.21
					c-0.62-0.52-0.92-1.23-0.92-2.13c0-1.42,0.84-2.46,2.52-3.11c1.68-0.65,4.08-0.97,7.18-0.97c2.85,0,5.5,0.15,7.96,0.44
					c2.46,0.29,4.69,0.65,6.7,1.07c1.54,0.32,2.92,0.66,4.16,1c0.51-0.33,0.77-0.49,1.27-0.82l1.69-9.88
					c-0.29-0.45-0.46-0.72-0.75-1.17c-1.47-0.37-3.12-0.75-4.96-1.12c-2.23-0.45-4.68-0.83-7.33-1.12c-2.65-0.29-5.5-0.44-8.54-0.44
					c-9.12,0-15.93,1.44-20.43,4.32c-4.5,2.88-6.74,7.42-6.74,13.64c0,2.27,0.37,4.25,1.12,5.97c0.74,1.72,1.84,3.17,3.3,4.37
					c1.46,1.2,3.22,2.18,5.29,2.96c2.07,0.78,4.46,1.39,7.18,1.84c2.39,0.39,4.67,0.73,6.84,1.02c2.17,0.29,4.09,0.63,5.77,1.02
					c1.68,0.39,2.99,0.86,3.93,1.41c0.94,0.55,1.41,1.28,1.41,2.18C1014.78,496.52,1013.92,497.58,1012.2,498.29z"/>
				<path class="st3" d="M1073.29,496.11c-1.75,0.36-3.46,0.53-5.14,0.53c-2.52,0-4.38-0.6-5.58-1.8c-1.2-1.2-1.8-3.15-1.8-5.87
					V470.5c0-0.57,0.46-1.03,1.03-1.03h16.1c0.57,0,1.03-0.46,1.03-1.03v-10.08c0-0.57-0.46-1.03-1.03-1.03h-16.1
					c-0.57,0-1.03-0.46-1.03-1.03v-9.5c0-0.57-0.46-1.03-1.03-1.03h-14.51c-0.5,0-0.92,0.36-1.01,0.85l-1.76,9.95
					c-0.08,0.44-0.44,0.78-0.88,0.84l-8.54,1.06c-0.51,0.06-0.9,0.5-0.9,1.02v8.94c0,0.57,0.46,1.03,1.03,1.03h8.14
					c0.57,0,1.03,0.46,1.03,1.03v19.55c0,5.18,0.78,9.3,2.33,12.37c1.55,3.07,3.79,5.29,6.7,6.65c2.91,1.36,6.41,2.04,10.48,2.04
					c3.23,0,6.44-0.24,9.61-0.73c2.89-0.44,5.92-1.09,9.08-1.93c0.51-0.14,0.84-0.65,0.75-1.18l-1.98-11.32
					c-0.1-0.57-0.66-0.94-1.23-0.82C1076.34,495.49,1074.75,495.82,1073.29,496.11z"/>
				<path class="st3" d="M902.44,528.2c-2.94-1.94-7.04-3.36-12.28-4.27c-5.24-0.9-11.94-1.36-20.09-1.36
					c-1.62,0-4.01,0.03-7.18,0.1c-3.17,0.07-7.1,0.15-11.79,0.24c-4.69,0.1-10.17,0.28-16.45,0.53c0,0,0,0,0,0v67
					c0,0.57,0.46,1.03,1.03,1.03h17.36c0.57,0,1.03-0.46,1.03-1.03v-16.75c0-0.58,0.48-1.04,1.06-1.03
					c1.85,0.06,3.39,0.11,4.62,0.16c1.46,0.06,2.7,0.11,3.74,0.15c1.03,0.03,2.05,0.05,3.06,0.05c1,0,2.22,0,3.64,0
					c1.42,0,3.23,0,5.43,0c6.53,0,12.03-0.47,16.5-1.41c4.46-0.94,8.04-2.43,10.72-4.46c2.68-2.04,4.61-4.69,5.77-7.96
					c1.17-3.27,1.75-7.2,1.75-11.79c0-4.53-0.58-8.38-1.75-11.55C907.44,532.7,905.39,530.15,902.44,528.2z M889.83,552.76
					c-0.55,1.55-1.59,2.8-3.11,3.74c-1.52,0.94-3.77,1.63-6.74,2.09c-2.98,0.45-6.89,0.68-11.74,0.68c-1.23,0-2.35-0.01-3.35-0.05
					c-1-0.03-2.02-0.06-3.06-0.1c-1.04-0.03-2.17-0.08-3.4-0.15c-0.98-0.05-2.11-0.1-3.38-0.15c-0.55-0.02-0.99-0.47-0.99-1.03
					v-20.04c0-0.55,0.46-1.02,1.01-1.03c2.02-0.06,3.75-0.11,5.2-0.17c1.68-0.06,3.12-0.11,4.32-0.15c1.2-0.03,2.35-0.05,3.45-0.05
					c1.1,0,2.3,0,3.59,0c3.82,0,6.95,0.21,9.41,0.63c2.46,0.42,4.4,1.08,5.82,1.99c1.42,0.91,2.41,2.02,2.96,3.35
					c0.55,1.33,0.82,2.96,0.82,4.9C890.65,549.36,890.38,551.2,889.83,552.76z"/>
				<path class="st3" d="M974.6,578.28c-0.45,0.06-0.87,0.1-1.26,0.1c-0.97,0-1.76-0.35-2.38-1.07c-0.62-0.71-0.92-2.1-0.92-4.17
					v-16.3c0-4.33-1.04-7.91-3.11-10.72c-2.07-2.81-5.29-4.92-9.66-6.31c-4.37-1.39-9.98-2.09-16.84-2.09
					c-4.01,0-8.14,0.31-12.37,0.92c-3.88,0.56-7.52,1.25-10.94,2.05c-0.54,0.13-0.87,0.66-0.77,1.2l2.04,10.68
					c0.11,0.58,0.68,0.94,1.25,0.8c1.88-0.46,3.85-0.86,5.89-1.19c2.43-0.39,4.84-0.7,7.23-0.92c2.39-0.23,4.53-0.34,6.4-0.34
					c4.2,0,7.38,0.5,9.51,1.5c2.14,1,3.2,2.57,3.2,4.71v1.54c0,0.55-0.44,1-0.99,1.02c-6.5,0.26-12.12,0.67-16.86,1.22
					c-4.98,0.58-9.04,1.49-12.18,2.72c-3.14,1.23-5.45,2.9-6.94,5c-1.49,2.1-2.23,4.87-2.23,8.3c0,2.72,0.47,5.06,1.41,7.04
					c0.94,1.97,2.23,3.59,3.88,4.85c1.65,1.26,3.54,2.18,5.68,2.77c2.13,0.58,4.4,0.87,6.79,0.87c3.17,0,6.08-0.28,8.73-0.83
					c2.65-0.55,5.16-1.36,7.52-2.43c2.01-0.91,3.99-1.97,5.93-3.18c0.59,0.16,0.88,0.24,1.46,0.4c0.98,2.04,2.42,3.51,4.31,4.43
					c2.2,1.07,4.88,1.6,8.05,1.6c2.14,0,4.14-0.26,6.02-0.78c1.64-0.45,3.13-1.08,4.48-1.88c0.35-0.21,0.53-0.62,0.48-1.02
					l-1.46-10.79C975.5,578.12,975.05,578.22,974.6,578.28z M951.89,576.23c0,0.31-0.14,0.62-0.38,0.81
					c-1.15,0.9-2.51,1.69-4.08,2.36c-1.75,0.75-3.48,1.33-5.19,1.75c-1.72,0.42-3.22,0.63-4.51,0.63c-1.88,0-3.38-0.47-4.51-1.41
					c-1.13-0.94-1.7-2.38-1.7-4.32c0-1.42,0.39-2.6,1.16-3.54c0.78-0.94,1.99-1.68,3.64-2.23s3.77-0.95,6.36-1.21
					c2.32-0.23,5.04-0.41,8.14-0.54c0.58-0.02,1.08,0.44,1.08,1.03V576.23z"/>
				<path class="st3" d="M1022.78,538.05c-1.52-0.23-3.02-0.34-4.51-0.34c-2.33,0-4.51,0.29-6.55,0.87
					c-2.04,0.58-4.08,1.5-6.11,2.77c-1.59,0.98-3.35,2.23-5.27,3.75c-0.67,0.53-1.67,0.06-1.67-0.8v-4.59
					c0-0.57-0.46-1.03-1.03-1.03H983.1c-0.57,0-1.03,0.46-1.03,1.03v50.74c0,0.57,0.46,1.03,1.03,1.03h16.39
					c0.57,0,1.03-0.46,1.03-1.03v-32.07c0.17-0.31,0.32-0.57,0.49-0.89c2.66-1.64,5.13-2.8,7.42-3.48c2.43-0.71,4.74-1.07,6.94-1.07
					c1.49,0,2.99,0.1,4.51,0.29c1.19,0.15,2.41,0.36,3.66,0.63c0.57,0.12,1.13-0.24,1.24-0.81l2.36-13.14
					c0.1-0.53-0.24-1.06-0.77-1.18C1025.17,538.46,1023.98,538.23,1022.78,538.05z"/>
				<path class="st3" d="M1068.44,577.46c-1.75,0.36-3.46,0.53-5.14,0.53c-2.52,0-4.38-0.6-5.58-1.8c-1.2-1.2-1.8-3.15-1.8-5.87
					v-18.48c0-0.57,0.46-1.03,1.03-1.03h16.1c0.57,0,1.03-0.46,1.03-1.03v-10.08c0-0.57-0.46-1.03-1.03-1.03h-16.1
					c-0.57,0-1.03-0.46-1.03-1.03v-9.5c0-0.57-0.46-1.03-1.03-1.03h-14.51c-0.5,0-0.92,0.36-1.01,0.85l-1.76,9.95
					c-0.08,0.44-0.44,0.78-0.88,0.84l-8.54,1.06c-0.51,0.06-0.9,0.5-0.9,1.02v8.94c0,0.57,0.46,1.03,1.03,1.03h8.14
					c0.57,0,1.03,0.46,1.03,1.03v19.55c0,5.18,0.78,9.3,2.33,12.37c1.55,3.07,3.79,5.29,6.7,6.65c2.91,1.36,6.41,2.04,10.48,2.04
					c3.23,0,6.44-0.24,9.61-0.73c2.89-0.44,5.92-1.09,9.08-1.93c0.51-0.14,0.84-0.65,0.75-1.18l-1.98-11.32
					c-0.1-0.57-0.66-0.94-1.23-0.82C1071.49,576.83,1069.9,577.16,1068.44,577.46z"/>
				<path class="st3" d="M1132.93,539.99c-2.94-1.52-6.68-2.28-11.21-2.28c-2.72,0-5.31,0.26-7.76,0.78
					c-2.46,0.52-4.9,1.28-7.33,2.28c-2.01,0.83-4.18,1.85-6.51,3.05c-0.68,0.35-1.49-0.15-1.49-0.91v-3.2
					c0-0.57-0.46-1.03-1.03-1.03h-14.64c-0.57,0-1.03,0.46-1.03,1.03v50.74c0,0.57,0.46,1.03,1.03,1.03h16.39
					c0.57,0,1.03-0.46,1.03-1.03v-34.28c0.24-0.35,0.41-0.61,0.65-0.96c1.5-0.61,2.9-1.15,4.2-1.63c1.49-0.55,2.98-0.97,4.46-1.26
					c1.49-0.29,2.98-0.44,4.46-0.44c2.98,0,5.24,0.78,6.79,2.33c1.55,1.55,2.33,4.01,2.33,7.38v28.86c0,0.57,0.46,1.03,1.03,1.03
					h16.39c0.57,0,1.03-0.46,1.03-1.03v-35.08c0-3.43-0.73-6.47-2.18-9.12C1138.07,543.6,1135.87,541.52,1132.93,539.99z"/>
				<path class="st3" d="M1203.82,543.59c-4.66-3.91-11.81-5.87-21.45-5.87c-4.59,0-8.9,0.52-12.91,1.55
					c-4.01,1.04-7.55,2.68-10.63,4.95c-3.07,2.26-5.48,5.22-7.23,8.88c-1.75,3.66-2.62,8.07-2.62,13.25c0,4.59,0.74,8.56,2.23,11.89
					c1.49,3.33,3.65,6.05,6.5,8.15c2.85,2.1,6.29,3.64,10.34,4.61c4.04,0.97,8.62,1.46,13.73,1.46c3.82,0,7.36-0.13,10.63-0.39
					c3.27-0.26,6.4-0.66,9.41-1.21c2.68-0.49,5.3-1.04,7.86-1.66c0.52-0.13,0.86-0.64,0.77-1.17l-1.62-9.87
					c-0.09-0.56-0.63-0.94-1.19-0.84c-2.44,0.44-4.88,0.85-7.32,1.22c-2.78,0.42-5.52,0.75-8.2,0.97c-2.68,0.23-5.29,0.34-7.81,0.34
					c-3.62,0-6.66-0.32-9.12-0.97c-2.46-0.65-4.29-1.63-5.48-2.96c-1.2-1.33-1.83-2.99-1.89-5c0-0.2,0-0.39,0-0.58
					c0-0.19,0.03-0.39,0.1-0.58c4.85-0.13,9.41-0.26,13.68-0.39c4.27-0.13,8.23-0.29,11.89-0.49c3.65-0.2,6.92-0.39,9.8-0.58
					c2.47-0.17,4.64-0.31,6.51-0.43c0.52-0.03,0.94-0.45,0.96-0.97c0.03-0.68,0.05-1.38,0.05-2.1c0-1.03,0-1.85,0-2.43
					C1210.81,553.76,1208.48,547.5,1203.82,543.59z M1188.39,559.07c-1.68,0.06-3.61,0.15-5.77,0.24c-2.17,0.1-4.48,0.18-6.94,0.24
					c-2.05,0.05-4.16,0.09-6.34,0.09c-0.69,0-1.19-0.66-1.01-1.32c0.38-1.37,0.89-2.57,1.53-3.58c0.84-1.32,1.88-2.39,3.11-3.2
					c1.23-0.81,2.55-1.37,3.98-1.7c1.42-0.32,2.91-0.49,4.46-0.49c2.46,0,4.48,0.32,6.07,0.97c1.58,0.65,2.78,1.69,3.59,3.11
					c0.67,1.18,1.1,2.62,1.31,4.33c0.07,0.6-0.36,1.13-0.96,1.17C1190.56,558.98,1189.55,559.02,1188.39,559.07z"/>
				<path class="st3" d="M1259.18,538.05c-1.52-0.23-3.03-0.34-4.51-0.34c-2.33,0-4.51,0.29-6.55,0.87
					c-2.04,0.58-4.08,1.5-6.11,2.77c-1.59,0.98-3.35,2.23-5.27,3.75c-0.67,0.53-1.67,0.06-1.67-0.8v-4.59
					c0-0.57-0.46-1.03-1.03-1.03h-14.54c-0.57,0-1.03,0.46-1.03,1.03v50.74c0,0.57,0.46,1.03,1.03,1.03h16.39
					c0.57,0,1.03-0.46,1.03-1.03v-32.07c0.17-0.31,0.32-0.57,0.49-0.89c2.66-1.64,5.13-2.8,7.42-3.48c2.42-0.71,4.74-1.07,6.94-1.07
					c1.49,0,2.99,0.1,4.51,0.29c1.19,0.15,2.41,0.36,3.66,0.63c0.57,0.12,1.13-0.24,1.24-0.81l2.36-13.14
					c0.1-0.53-0.24-1.06-0.77-1.18C1261.58,538.46,1260.39,538.23,1259.18,538.05z"/>
			</g>
		</g>
	</g>
	<g>
		<g>
			<g>
				<path class="st4" d="M803.62,590.19H668.2c-6.49,0-11.74-5.26-11.74-11.74V449.89c0-6.49,5.26-11.74,11.74-11.74h135.41
					c6.49,0,11.74,5.26,11.74,11.74v128.55C815.36,584.93,810.1,590.19,803.62,590.19z"/>
			</g>
		</g>
		<g>
			<path class="st5" d="M670.13,459.4v115.81h23.58v-46.13v-22.55v-31.24h60.76v-22.55h-77.67
				C673.11,452.73,670.13,455.71,670.13,459.4z"/>
			<path class="st5" d="M789.9,506.5c-7.86-7.75-17.54-11.62-29.05-11.62h-44.6v28.75h23.58v-6.71h21.02
				c5.01,0,9.17,1.71,12.47,5.13c3.3,3.42,4.96,7.75,4.96,12.99c0,5.13-1.65,9.43-4.96,12.9c-3.31,3.48-7.46,5.21-12.47,5.21h-21.02
				v-6.36h-23.58v44.17h23.58v-15.78h21.02c11.5,0,21.19-3.87,29.05-11.62c7.86-7.75,11.79-17.26,11.79-28.53
				C801.69,523.75,797.76,514.25,789.9,506.5z"/>
		</g>
	</g>
</g>
</svg>
